<svg width="48" height="48" viewBox="0 0 48 48" fill="none" xmlns="http://www.w3.org/2000/svg">
<path fill-rule="evenodd" clip-rule="evenodd" d="M33.6867 13.0954C31.2086 10.732 27.9016 9.44446 24.48 9.49737C18.2188 9.49737 12.9011 13.7215 11.0051 19.4095C9.99976 22.3902 9.99976 25.6179 11.0051 28.5986H11.0139C12.9187 34.2779 18.2276 38.502 24.4888 38.502C27.7209 38.502 30.4956 37.6753 32.6461 36.2151V36.2092C35.1771 34.5336 36.9055 31.8969 37.4435 28.9162H24.48V19.6742H47.1176C47.3998 21.2792 47.5321 22.9195 47.5321 24.5509C47.5321 31.8506 44.9233 38.0222 40.3841 42.2022L40.3889 42.2058C36.4116 45.8744 30.9529 47.9997 24.48 47.9997C15.4056 47.9997 7.10721 42.8849 3.03299 34.7805C-0.37099 27.999 -0.370982 20.0093 3.03301 13.2277C7.10724 5.11455 15.4056 -0.000335793 24.48 -0.000335793C30.4414 -0.0708851 36.2 2.16906 40.5388 6.24328L33.6867 13.0954Z" fill="white"/>
</svg>
