<svg width="53" height="57" viewBox="0 0 53 57" fill="none" xmlns="http://www.w3.org/2000/svg">
<path d="M17.7344 21.5313H16.75M27.5781 21.5313H26.5938M37.4219 21.5313H36.4375M17.7344 21.5313C17.7344 21.8338 17.6307 22.1239 17.4461 22.3378C17.2615 22.5517 17.0111 22.6719 16.75 22.6719C16.4889 22.6719 16.2385 22.5517 16.0539 22.3378C15.8693 22.1239 15.7656 21.8338 15.7656 21.5313C15.7656 21.2287 15.8693 20.9386 16.0539 20.7247C16.2385 20.5108 16.4889 20.3906 16.75 20.3906C17.0111 20.3906 17.2615 20.5108 17.4461 20.7247C17.6307 20.9386 17.7344 21.2287 17.7344 21.5313V21.5313ZM27.5781 21.5313C27.5781 21.8338 27.4744 22.1239 27.2898 22.3378C27.1052 22.5517 26.8548 22.6719 26.5938 22.6719C26.3327 22.6719 26.0823 22.5517 25.8977 22.3378C25.7131 22.1239 25.6094 21.8338 25.6094 21.5313C25.6094 21.2287 25.7131 20.9386 25.8977 20.7247C26.0823 20.5108 26.3327 20.3906 26.5938 20.3906C26.8548 20.3906 27.1052 20.5108 27.2898 20.7247C27.4744 20.9386 27.5781 21.2287 27.5781 21.5313V21.5313ZM37.4219 21.5313C37.4219 21.8338 37.3182 22.1239 37.1336 22.3378C36.949 22.5517 36.6986 22.6719 36.4375 22.6719C36.1764 22.6719 35.926 22.5517 35.7414 22.3378C35.5568 22.1239 35.4531 21.8338 35.4531 21.5313C35.4531 21.2287 35.5568 20.9386 35.7414 20.7247C35.926 20.5108 36.1764 20.3906 36.4375 20.3906C36.6986 20.3906 36.949 20.5108 37.1336 20.7247C37.3182 20.9386 37.4219 21.2287 37.4219 21.5313V21.5313ZM1 30.6867C1 35.5533 3.94787 39.7934 8.10587 40.5021C10.9592 40.9888 13.8415 41.3629 16.75 41.6245V55.75L27.733 43.0267C28.2768 42.3991 29.0079 42.0376 29.7752 42.0169C34.8982 41.8708 40.0089 41.365 45.079 40.5021C49.2396 39.7934 52.1875 35.5564 52.1875 30.6836V12.3789C52.1875 7.50613 49.2396 3.26909 45.0816 2.56038C38.96 1.51926 32.7809 0.997748 26.5938 1.00001C20.3148 1.00001 14.1407 1.5323 8.10587 2.56038C3.94787 3.26909 1 7.50917 1 12.3789V30.6836V30.6867Z" stroke="white" stroke-width="1.5" stroke-linecap="round" stroke-linejoin="round"/>
</svg>
