<svg width="104" height="124" viewBox="0 0 104 124" fill="none" xmlns="http://www.w3.org/2000/svg">
<path d="M93.3543 109.85L104 25.4409H51.8253H0L9.82677 109.85L51.8253 123.622L93.3543 109.85Z" fill="white"/>
<path d="M30.7613 5.95161C30.7613 4.13199 31.3868 2.72178 32.6377 1.72098C33.9115 0.697447 35.8221 0.185678 38.3696 0.185678C40.0527 0.185678 41.4857 0.344895 42.6684 0.663329V5.37161C41.3947 4.98493 40.1323 4.7916 38.8813 4.7916C37.6531 4.7916 36.857 4.93944 36.4931 5.23513C36.1291 5.50808 35.9472 5.91749 35.9472 6.46338V17.927C35.9472 19.0188 36.8001 19.5647 38.506 19.5647C40.2347 19.5647 41.6563 19.3941 42.7708 19.0529V23.6588C41.5425 24 40.0527 24.1706 38.3013 24.1706C35.7538 24.1706 33.8546 23.6702 32.6036 22.6694C31.3754 21.6686 30.7613 20.2584 30.7613 18.4388V5.95161ZM44.3098 5.88337C44.3098 4.06375 44.9239 2.66491 46.1522 1.68687C47.3804 0.686074 49.1432 0.185678 51.4405 0.185678C53.7605 0.185678 55.4891 0.424503 56.6264 0.902154V5.81514C55.2389 5.22376 53.6581 4.92807 51.884 4.92807C50.9742 4.92807 50.3601 5.07592 50.0416 5.37161C49.7232 5.64455 49.564 6.04259 49.564 6.56573V7.0775C49.564 7.71437 49.6663 8.19202 49.871 8.51045C50.0985 8.80614 50.5761 9.14732 51.304 9.53399L55.1934 11.7175C57.0585 12.7411 57.9911 14.2764 57.9911 16.3235V18.4388C57.9911 20.2811 57.3087 21.7027 55.944 22.7035C54.5793 23.6816 52.6573 24.1706 50.1781 24.1706C47.7216 24.1706 45.8679 23.909 44.6169 23.3859V18.4388C46.1636 19.0984 47.9149 19.4282 49.871 19.4282C51.8271 19.4282 52.8052 18.8709 52.8052 17.7564V17.2446C52.8052 16.7215 52.6914 16.3348 52.464 16.0846C52.2593 15.8117 51.8612 15.516 51.2699 15.1976L47.6192 13.2187C45.413 11.9905 44.3098 10.2618 44.3098 8.0328V5.88337ZM59.303 5.88337C59.303 4.06375 59.9172 2.66491 61.1454 1.68687C62.3737 0.686074 64.1364 0.185678 66.4337 0.185678C68.7537 0.185678 70.4824 0.424503 71.6196 0.902154V5.81514C70.2322 5.22376 68.6514 4.92807 66.8772 4.92807C65.9674 4.92807 65.3533 5.07592 65.0349 5.37161C64.7164 5.64455 64.5572 6.04259 64.5572 6.56573V7.0775C64.5572 7.71437 64.6596 8.19202 64.8643 8.51045C65.0917 8.80614 65.5694 9.14732 66.2972 9.53399L70.1867 11.7175C72.0518 12.7411 72.9843 14.2764 72.9843 16.3235V18.4388C72.9843 20.2811 72.302 21.7027 70.9373 22.7035C69.5725 23.6816 67.6506 24.1706 65.1713 24.1706C62.7148 24.1706 60.8611 23.909 59.6101 23.3859V18.4388C61.1568 19.0984 62.9082 19.4282 64.8643 19.4282C66.8204 19.4282 67.7984 18.8709 67.7984 17.7564V17.2446C67.7984 16.7215 67.6847 16.3348 67.4572 16.0846C67.2525 15.8117 66.8545 15.516 66.2631 15.1976L62.6125 13.2187C60.4062 11.9905 59.303 10.2618 59.303 8.0328V5.88337Z" fill="white"/>
<path d="M10.6457 32.1064H94.9921L87.3243 104.339L51.0762 113.294L19.0106 104.339V83.4456H31.558L35.0434 93.594L51.0762 97.7728L71.9885 93.594V76.879H19.0106H14.1311V61.3578H71.9885V47.6276H14.1311L10.6457 32.1064Z" fill="#264DE4"/>
</svg>
