<svg width="53" height="58" viewBox="0 0 53 58" fill="none" xmlns="http://www.w3.org/2000/svg">
<path d="M52.25 35.5V27.9531C52.25 25.3797 51.0351 22.9117 48.8726 21.092C46.71 19.2723 43.777 18.25 40.7188 18.25H35.5938C34.5743 18.25 33.5967 17.9092 32.8758 17.3027C32.155 16.6961 31.75 15.8734 31.75 15.0156V10.7031C31.75 8.1297 30.5351 5.66167 28.3726 3.84198C26.21 2.02229 23.277 1 20.2188 1H13.8125M21.5 1H4.84375C2.722 1 1 2.449 1 4.23438V53.8281C1 55.6135 2.722 57.0625 4.84375 57.0625H48.4063C50.528 57.0625 52.25 55.6135 52.25 53.8281V26.875C52.25 20.0125 49.0103 13.4311 43.2435 8.57861C37.4768 3.72611 29.6554 1 21.5 1V1Z" stroke="white" stroke-width="1.5" stroke-linecap="round" stroke-linejoin="round"/>
</svg>
