<svg width="103" height="123" viewBox="0 0 103 123" fill="none" xmlns="http://www.w3.org/2000/svg">
<path fill-rule="evenodd" clip-rule="evenodd" d="M103 35.6206L92.4567 109.973L51.3269 122.104L9.73228 109.973L0 35.6206H51.3269H103ZM28.3908 56.9396H79.5207V46.7399H21.0865V76.4117H63.0861V90.3204L46.0428 92.6385L31.4342 90.3204V83.3661H21.0865V97.7384L49.6949 103.765L76.4772 97.7384V67.6029H28.3908V56.9396Z" fill="white"/>
<path d="M23.5959 8.76054H28.1074V14.2992H32.2966V8.76054H36.8082V23H32.2966V17.1995H28.1074V23H23.5959V8.76054ZM41.8534 23V12.0435H38.6309V8.76054H49.6579V12.0435H46.3649V23H41.8534ZM51.4806 8.76054H55.6699L59.2147 14.2992L62.7594 8.76054H67.0494V23H62.4372V15.266L59.114 20.8953H58.1371L54.7031 15.266V23H51.4806V8.76054ZM70.4934 8.76054H75.005V20.0997H79.8387V23H70.4934V8.76054Z" fill="white"/>
</svg>
