<svg width="100" height="85" viewBox="0 0 100 85" fill="none" xmlns="http://www.w3.org/2000/svg">
<path d="M50 35.9448H42.1348V60.2453C39.8877 66.8267 30.8989 60.2453 30.8989 60.2453L27.5281 63.2829C34.7191 73.4081 50 67.333 50 60.2453V35.9448Z" fill="white" stroke="white" stroke-width="1.44944"/>
<path d="M82.644 39.851L79.2656 44.5828C74.7611 41.0778 61.2474 38.2763 65.7519 46.6859C82.644 51.9435 79.2656 50.3662 82.644 53.5207C84.8963 55.6238 84.725 60.8814 82.644 63.5102C74.9863 73.1841 61.8105 67.541 56.1797 63.5102L61.2474 58.2526C71.3826 68.242 87.7117 58.2526 63.4997 53.5207C60.4966 52.294 55.6167 47.8426 60.1212 39.851C64.6258 31.8595 77.0133 36.5212 82.644 39.851Z" fill="white"/>
<ellipse cx="10.1124" cy="55.6889" rx="10.1124" ry="9.11269" fill="white"/>
<ellipse cx="10.1124" cy="55.6884" rx="6.74157" ry="6.07512" fill="white"/>
<rect x="6.74158" width="93.2584" height="5.0626" fill="white"/>
<rect x="6.74158" y="41.5132" width="36.4507" height="5.61798" transform="rotate(-90 6.74158 41.5132)" fill="white"/>
<rect x="94.382" y="84.0391" width="84.0392" height="5.61798" transform="rotate(-90 94.382 84.0391)" fill="white"/>
<rect x="6.74158" y="78.9766" width="93.2584" height="5.0626" fill="white"/>
<rect x="6.74158" y="78.9766" width="9.11269" height="6.74157" transform="rotate(-90 6.74158 78.9766)" fill="white"/>
</svg>
