<svg width="61" height="50" viewBox="0 0 61 50" fill="none" xmlns="http://www.w3.org/2000/svg">
<path d="M38.125 21.875C38.125 23.5326 37.3217 25.1223 35.8917 26.2944C34.4617 27.4665 32.5223 28.125 30.5 28.125C28.4777 28.125 26.5383 27.4665 25.1083 26.2944C23.6783 25.1223 22.875 23.5326 22.875 21.875C22.875 20.2174 23.6783 18.6277 25.1083 17.4556C26.5383 16.2835 28.4777 15.625 30.5 15.625C32.5223 15.625 34.4617 16.2835 35.8917 17.4556C37.3217 18.6277 38.125 20.2174 38.125 21.875V21.875Z" stroke="#CE7B7B" stroke-width="2" stroke-linecap="round" stroke-linejoin="round"/>
<path d="M49.5625 21.875C49.5625 36.7542 30.5 45.3125 30.5 45.3125C30.5 45.3125 11.4375 36.7542 11.4375 21.875C11.4375 17.731 13.4459 13.7567 17.0208 10.8265C20.5957 7.8962 25.4443 6.25 30.5 6.25C35.5557 6.25 40.4043 7.8962 43.9792 10.8265C47.5541 13.7567 49.5625 17.731 49.5625 21.875V21.875Z" stroke="#CE7B7B" stroke-width="2" stroke-linecap="round" stroke-linejoin="round"/>
</svg>
