<svg width="75" height="54" viewBox="0 0 75 54" fill="none" xmlns="http://www.w3.org/2000/svg">
<path d="M47.5625 18.5V7.875C47.5625 6.18424 46.5155 4.56274 44.6519 3.36719C42.7882 2.17165 40.2606 1.5 37.625 1.5H11.125C8.48941 1.5 5.96177 2.17165 4.09813 3.36719C2.23448 4.56274 1.1875 6.18424 1.1875 7.875V46.125C1.1875 47.8158 2.23448 49.4373 4.09813 50.6328C5.96177 51.8283 8.48941 52.5 11.125 52.5H37.625C40.2606 52.5 42.7882 51.8283 44.6519 50.6328C46.5155 49.4373 47.5625 47.8158 47.5625 46.125V35.5M31 18.5L17.75 27M17.75 27L31 35.5M17.75 27H74.0625" stroke="#CE7B7B" stroke-width="1.5" stroke-linecap="round" stroke-linejoin="round"/>
</svg>
