<svg width="41" height="57" viewBox="0 0 41 57" fill="none" xmlns="http://www.w3.org/2000/svg">
<path d="M40 19.3814V21.9653C40 23.1239 39.7801 24.2609 39.3635 25.2556C38.947 26.2504 38.3493 27.0657 37.634 27.6151L24.678 37.5629M1 19.3814V21.9653C0.999968 23.1239 1.21991 24.2609 1.63647 25.2556C2.05304 26.2504 2.65069 27.0657 3.366 27.6151L16.322 37.5629M34 44.7215L24.68 37.5629M24.68 37.5629L22.634 35.9943C21.9782 35.4906 21.2449 35.2269 20.5 35.2269C19.7551 35.2269 19.0218 35.4906 18.366 35.9943L16.322 37.5629M16.322 37.5629L7 44.7215M40 49.3274C40 51.0293 39.5259 52.6615 38.682 53.865C37.8381 55.0684 36.6935 55.7444 35.5 55.7444H5.5C4.30653 55.7444 3.16193 55.0684 2.31802 53.865C1.47411 52.6615 1 51.0293 1 49.3274V18.9365C1.00033 17.7784 1.22044 16.642 1.63698 15.6478C2.05353 14.6536 2.65099 13.8387 3.366 13.2895L18.366 1.76744C19.0218 1.2637 19.7551 1 20.5 1C21.2449 1 21.9782 1.2637 22.634 1.76744L37.634 13.2895C38.349 13.8387 38.9465 14.6536 39.363 15.6478C39.7796 16.642 39.9997 17.7784 40 18.9365V49.3274V49.3274Z" stroke="#CE7B7B" stroke-width="2" stroke-linecap="round" stroke-linejoin="round"/>
</svg>
