<svg width="47" height="44" viewBox="0 0 47 44" fill="none" xmlns="http://www.w3.org/2000/svg">
<path d="M31.2377 33.858C36.2838 33.3433 41.2419 32.3173 46.0089 30.8013C41.9718 26.9486 39.741 21.9405 39.7499 16.75V15.1167V15C39.7499 11.287 38.0379 7.72602 34.9904 5.10051C31.943 2.475 27.8097 1 23.4999 1C19.1902 1 15.0569 2.475 12.0095 5.10051C8.962 7.72602 7.24995 11.287 7.24995 15V16.75C7.25812 21.9408 5.02637 26.9489 0.988281 30.8013C5.68182 32.2947 10.6299 33.333 15.7622 33.858M31.2377 33.858C26.0972 34.3833 20.9027 34.3833 15.7622 33.858M31.2377 33.858C31.6279 34.9077 31.725 36.0219 31.5209 37.11C31.3168 38.1981 30.8174 39.2293 30.0633 40.1197C29.3091 41.01 28.3216 41.7344 27.1811 42.2338C26.0406 42.7331 24.7793 42.9934 23.4999 42.9934C22.2206 42.9934 20.9593 42.7331 19.8188 42.2338C18.6783 41.7344 17.6908 41.01 16.9366 40.1197C16.1825 39.2293 15.6831 38.1981 15.479 37.11C15.2749 36.0219 15.372 34.9077 15.7622 33.858" stroke="white" stroke-width="1.5" stroke-linecap="round" stroke-linejoin="round"/>
</svg>
