<svg width="40" height="41" viewBox="0 0 40 41" fill="none" xmlns="http://www.w3.org/2000/svg">
<path d="M12.9687 20.5H12.1875M20.7812 20.5H20M28.5937 20.5H27.8125M12.9687 20.5C12.9687 20.7113 12.8864 20.914 12.7399 21.0635C12.5934 21.2129 12.3947 21.2969 12.1875 21.2969C11.9803 21.2969 11.7816 21.2129 11.6351 21.0635C11.4886 20.914 11.4062 20.7113 11.4062 20.5C11.4062 20.2887 11.4886 20.086 11.6351 19.9365C11.7816 19.7871 11.9803 19.7031 12.1875 19.7031C12.3947 19.7031 12.5934 19.7871 12.7399 19.9365C12.8864 20.086 12.9687 20.2887 12.9687 20.5V20.5ZM20.7812 20.5C20.7812 20.7113 20.6989 20.914 20.5524 21.0635C20.4059 21.2129 20.2072 21.2969 20 21.2969C19.7928 21.2969 19.5941 21.2129 19.4476 21.0635C19.3011 20.914 19.2187 20.7113 19.2187 20.5C19.2187 20.2887 19.3011 20.086 19.4476 19.9365C19.5941 19.7871 19.7928 19.7031 20 19.7031C20.2072 19.7031 20.4059 19.7871 20.5524 19.9365C20.6989 20.086 20.7812 20.2887 20.7812 20.5V20.5ZM28.5937 20.5C28.5937 20.7113 28.5114 20.914 28.3649 21.0635C28.2184 21.2129 28.0197 21.2969 27.8125 21.2969C27.6053 21.2969 27.4066 21.2129 27.2601 21.0635C27.1136 20.914 27.0312 20.7113 27.0312 20.5C27.0312 20.2887 27.1136 20.086 27.2601 19.9365C27.4066 19.7871 27.6053 19.7031 27.8125 19.7031C28.0197 19.7031 28.2184 19.7871 28.3649 19.9365C28.5114 20.086 28.5937 20.2887 28.5937 20.5V20.5ZM38.75 20.5C38.75 23.0115 38.265 25.4985 37.3227 27.8188C36.3805 30.1392 34.9993 32.2475 33.2582 34.0234C31.5172 35.7993 29.4502 37.2081 27.1753 38.1692C24.9005 39.1303 22.4623 39.625 20 39.625C17.5377 39.625 15.0995 39.1303 12.8247 38.1692C10.5498 37.2081 8.48285 35.7993 6.74175 34.0234C5.00065 32.2475 3.61953 30.1392 2.67726 27.8188C1.73498 25.4985 1.25 23.0115 1.25 20.5C1.25 15.4277 3.22544 10.5632 6.74175 6.97658C10.2581 3.38995 15.0272 1.375 20 1.375C24.9728 1.375 29.7419 3.38995 33.2582 6.97658C36.7746 10.5632 38.75 15.4277 38.75 20.5Z" stroke="white" stroke-width="1.5" stroke-linecap="round" stroke-linejoin="round"/>
</svg>
