<svg width="62" height="61" viewBox="0 0 62 61" fill="none" xmlns="http://www.w3.org/2000/svg">
<path d="M50.94 52.0761C48.6109 49.1079 45.5975 46.7009 42.1373 45.0446C38.6771 43.3883 34.8645 42.5279 31 42.5313C27.1355 42.5279 23.3229 43.3883 19.8627 45.0446C16.4025 46.7009 13.3891 49.1079 11.06 52.0761M50.9367 52.0761C55.4817 48.185 58.6904 43.056 60.1373 37.3694C61.5842 31.6827 61.2009 25.7071 59.0382 20.2349C56.8756 14.7627 53.0357 10.0526 48.028 6.72916C43.0202 3.40571 37.0811 1.62598 30.9983 1.62598C24.9155 1.62598 18.9764 3.40571 13.9687 6.72916C8.96091 10.0526 5.12109 14.7627 2.95845 20.2349C0.795797 25.7071 0.412502 31.6827 1.85939 37.3694C3.30628 43.056 6.515 48.185 11.06 52.0761M50.9367 52.0761C45.4501 56.7865 38.3521 59.3851 31 59.375C23.6468 59.3859 16.5474 56.7872 11.06 52.0761M41 23.2813C41 25.834 39.9464 28.2821 38.0711 30.0872C36.1957 31.8922 33.6522 32.9063 31 32.9063C28.3478 32.9063 25.8043 31.8922 23.9289 30.0872C22.0536 28.2821 21 25.834 21 23.2813C21 20.7286 22.0536 18.2804 23.9289 16.4754C25.8043 14.6703 28.3478 13.6563 31 13.6563C33.6522 13.6563 36.1957 14.6703 38.0711 16.4754C39.9464 18.2804 41 20.7286 41 23.2813V23.2813Z" stroke="#CE7B7B" stroke-width="1.5" stroke-linecap="round" stroke-linejoin="round"/>
</svg>
