<svg width="43" height="45" viewBox="0 0 43 45" fill="none" xmlns="http://www.w3.org/2000/svg">
<path d="M14.125 22.5H23.3437M14.125 29.125H23.3437M14.125 35.75H23.3437M30.7187 37.4062H36.25C37.717 37.4062 39.1239 36.8828 40.1612 35.9509C41.1985 35.0191 41.7812 33.7553 41.7812 32.4375V9.4885C41.7812 6.98204 39.704 4.85542 36.9236 4.64783C36.0041 4.57934 35.0838 4.52044 34.1629 4.47117M19.9021 4.47117C19.7423 4.93492 19.6562 5.42737 19.6562 5.9375C19.6562 6.85175 20.4822 7.59375 21.5 7.59375H32.5625C33.0515 7.59375 33.5205 7.41925 33.8662 7.10865C34.212 6.79804 34.4062 6.37676 34.4062 5.9375C34.4064 5.44043 34.3235 4.94615 34.1604 4.47117M19.9021 4.47117C20.2512 3.45688 20.9527 2.56965 21.9038 1.9394C22.8549 1.30915 24.0056 0.969 25.1875 0.96875H28.875C31.3628 0.96875 33.4647 2.44392 34.1604 4.47117M19.9021 4.47117C18.9778 4.52196 18.0583 4.58158 17.1389 4.64783C14.3585 4.85542 12.2812 6.98204 12.2812 9.4885V14.2187M12.2812 14.2187H3.98437C2.45775 14.2187 1.21875 15.3317 1.21875 16.7031V41.5469C1.21875 42.9182 2.45775 44.0312 3.98437 44.0312H27.9531C29.4797 44.0312 30.7187 42.9182 30.7187 41.5469V16.7031C30.7187 15.3317 29.4797 14.2187 27.9531 14.2187H12.2812ZM8.59375 22.5H8.61342V22.5177H8.59375V22.5ZM8.59375 29.125H8.61342V29.1427H8.59375V29.125ZM8.59375 35.75H8.61342V35.7677H8.59375V35.75Z" stroke="#F9F871" stroke-width="1.5" stroke-linecap="round" stroke-linejoin="round"/>
</svg>
