<svg width="41" height="57" viewBox="0 0 41 57" fill="none" xmlns="http://www.w3.org/2000/svg">
<path d="M1 13.6333C1 36.8899 14.432 55.7444 31 55.7444H35.5C36.6935 55.7444 37.8381 55.0789 38.682 53.8943C39.5259 52.7097 40 51.1031 40 49.4278V45.576C40 44.1274 39.298 42.8641 38.296 42.5131L29.45 39.4081C28.57 39.0993 27.646 39.5625 27.104 40.5788L25.164 44.2088C24.6 45.2644 23.626 45.7304 22.744 45.2756C19.4698 43.5859 16.4963 40.9174 14.0296 37.4548C11.5628 33.9922 9.66175 29.8184 8.458 25.2223C8.134 23.9842 8.466 22.617 9.218 21.8253L11.804 19.1022C12.53 18.3414 12.858 17.0415 12.638 15.8091L10.426 3.39191C10.3043 2.70885 10.0234 2.10248 9.62811 1.66911C9.23277 1.23574 8.7456 1.00023 8.244 1H5.5C4.30653 1 3.16193 1.6655 2.31802 2.85011C1.47411 4.03471 1 5.64138 1 7.31667V13.6333Z" stroke="#CE7B7B" stroke-width="2" stroke-linecap="round" stroke-linejoin="round"/>
</svg>
