<svg width="67" height="62" viewBox="0 0 67 62" fill="none" xmlns="http://www.w3.org/2000/svg">
<path d="M14.5417 14.6364L25.375 22.8182L14.5417 31M30.7917 31H41.625M9.125 61H57.875C60.0299 61 62.0965 60.138 63.6202 58.6036C65.144 57.0692 66 54.9881 66 52.8182V9.18182C66 7.01187 65.144 4.93079 63.6202 3.3964C62.0965 1.86201 60.0299 1 57.875 1H9.125C6.97012 1 4.90349 1.86201 3.37976 3.3964C1.85602 4.93079 1 7.01187 1 9.18182V52.8182C1 54.9881 1.85602 57.0692 3.37976 58.6036C4.90349 60.138 6.97012 61 9.125 61V61Z" stroke="#CE7B7B" stroke-width="1.5" stroke-linecap="round" stroke-linejoin="round"/>
</svg>
