<svg width="111" height="116" viewBox="0 0 111 116" fill="none" xmlns="http://www.w3.org/2000/svg">
<path d="M55.4779 87.3004L55.4275 87.2456L1.16546 28.2399L23.9393 1.034L55.6759 1.03401L55.6802 1.03399L87.0624 0.878283L109.835 28.0821L55.6893 86.9609L55.6115 87.0455L55.5581 87.1473L55.4779 87.3004Z" fill="white" stroke="#F7354D" stroke-width="1.7525"/>
<path d="M29.3873 88.6254H35.0631C37.0363 88.6254 38.4755 89.0897 39.3809 90.0182C40.2862 90.9236 40.7389 92.328 40.7389 94.2316V95.7289C40.7389 98.2592 39.9032 99.8609 38.2318 100.534V100.604C39.1604 100.882 39.8103 101.451 40.1818 102.31C40.5764 103.169 40.7737 104.318 40.7737 105.757V110.04C40.7737 110.737 40.7969 111.305 40.8434 111.746C40.8898 112.164 41.0059 112.582 41.1916 113H37.2916C37.1524 112.605 37.0595 112.234 37.0131 111.886C36.9666 111.538 36.9434 110.911 36.9434 110.005V105.548C36.9434 104.434 36.7577 103.656 36.3863 103.215C36.0381 102.774 35.4229 102.554 34.5408 102.554H33.2176V113H29.3873V88.6254ZM34.6104 99.0717C35.3765 99.0717 35.9452 98.8743 36.3167 98.4797C36.7113 98.0851 36.9086 97.4235 36.9086 96.4949V94.6146C36.9086 93.7325 36.7461 93.0941 36.4211 92.6994C36.1193 92.3048 35.6318 92.1075 34.9586 92.1075H33.2176V99.0717H34.6104ZM49.0026 113.348C47.1455 113.348 45.7294 112.826 44.7545 111.781C43.7795 110.713 43.292 109.193 43.292 107.22V88.6254H47.1223V107.498C47.1223 108.334 47.2848 108.938 47.6098 109.309C47.958 109.68 48.4455 109.866 49.0722 109.866C49.699 109.866 50.1749 109.68 50.4999 109.309C50.8481 108.938 51.0222 108.334 51.0222 107.498V88.6254H54.7132V107.22C54.7132 109.193 54.2257 110.713 53.2507 111.781C52.2758 112.826 50.8597 113.348 49.0026 113.348ZM57.4412 88.6254H63.2215C65.1947 88.6254 66.6339 89.0897 67.5393 90.0182C68.4446 90.9236 68.8973 92.328 68.8973 94.2316V95.2065C68.8973 96.4601 68.6884 97.4815 68.2705 98.2708C67.8759 99.06 67.2607 99.6288 66.425 99.977V100.047C68.3285 100.697 69.2803 102.391 69.2803 105.13V107.22C69.2803 109.1 68.7812 110.539 67.783 111.538C66.808 112.513 65.3688 113 63.4652 113H57.4412V88.6254ZM62.7688 98.5493C63.5349 98.5493 64.1036 98.352 64.475 97.9574C64.8697 97.5628 65.067 96.9012 65.067 95.9726V94.6146C65.067 93.7325 64.9045 93.0941 64.5795 92.6994C64.2777 92.3048 63.7902 92.1075 63.117 92.1075H61.2715V98.5493H62.7688ZM63.4652 109.518C64.1384 109.518 64.6375 109.344 64.9625 108.996C65.2875 108.624 65.45 107.997 65.45 107.115V104.991C65.45 103.877 65.2527 103.111 64.8581 102.693C64.4866 102.252 63.8599 102.031 62.9777 102.031H61.2715V109.518H63.4652ZM74.492 102.623L69.8608 88.6254H73.9349L76.5464 97.5744H76.6161L79.2276 88.6254H82.9535L78.3223 102.623V113H74.492V102.623Z" fill="white"/>
</svg>
