<svg width="42" height="42" viewBox="0 0 42 42" fill="none" xmlns="http://www.w3.org/2000/svg">
<path d="M29.3333 29.3333L23.8022 23.8022M23.8022 23.8022C24.4987 23.1058 25.0511 22.279 25.428 21.369C25.8049 20.4591 25.9989 19.4838 25.9989 18.4989C25.9989 17.514 25.8049 16.5387 25.428 15.6287C25.0511 14.7188 24.4987 13.892 23.8022 13.1956C23.1058 12.4991 22.279 11.9467 21.369 11.5697C20.4591 11.1928 19.4838 10.9988 18.4989 10.9988C17.514 10.9988 16.5387 11.1928 15.6287 11.5697C14.7188 11.9467 13.892 12.4991 13.1956 13.1956C11.7887 14.6024 10.9984 16.5104 10.9984 18.5C10.9984 20.4896 11.7887 22.3976 13.1956 23.8044C14.6024 25.2113 16.5104 26.0016 18.5 26.0016C20.4896 26.0016 22.3976 25.2113 23.8044 23.8044L23.8022 23.8022ZM41 21C41 23.6264 40.4827 26.2272 39.4776 28.6537C38.4725 31.0802 36.9993 33.285 35.1421 35.1421C33.285 36.9993 31.0802 38.4725 28.6537 39.4776C26.2272 40.4827 23.6264 41 21 41C18.3736 41 15.7728 40.4827 13.3463 39.4776C10.9198 38.4725 8.71504 36.9993 6.85786 35.1421C5.00069 33.285 3.5275 31.0802 2.52241 28.6537C1.51732 26.2272 1 23.6264 1 21C1 15.6957 3.10714 10.6086 6.85786 6.85786C10.6086 3.10714 15.6957 1 21 1C26.3043 1 31.3914 3.10714 35.1421 6.85786C38.8929 10.6086 41 15.6957 41 21Z" stroke="white" stroke-width="1.5" stroke-linecap="round" stroke-linejoin="round"/>
</svg>
