<svg width="57" height="52" viewBox="0 0 57 52" fill="none" xmlns="http://www.w3.org/2000/svg">
<path d="M5.6875 26C5.6875 31.47 8.09095 36.7161 12.3691 40.584C16.6473 44.452 22.4497 46.625 28.5 46.625C34.5503 46.625 40.3527 44.452 44.6309 40.584C48.909 36.7161 51.3125 31.47 51.3125 26M5.6875 26C5.6875 20.5299 8.09095 15.2838 12.3691 11.4159C16.6473 7.54794 22.4497 5.37496 28.5 5.37496C34.5503 5.37496 40.3527 7.54794 44.6309 11.4159C48.909 15.2838 51.3125 20.5299 51.3125 26M5.6875 26H1.125M51.3125 26H55.875M51.3125 26H28.5M2.77662 34.4617L7.06538 33.051M49.9377 18.9435L54.2264 17.5327M7.53075 41.9087L11.0287 39.2577M45.9774 12.7422L49.4723 10.0912M14.8155 47.4362L17.0968 43.8612M39.9093 8.13871L42.1905 4.56371M23.7489 50.3732L24.5398 46.3115M32.4633 5.68846L33.2541 1.62671M33.2541 50.3732L32.4633 46.3115M24.5398 5.68846L23.7489 1.62671M42.1875 47.4335L39.9063 43.8612M14.8125 4.56371L28.5 26M49.4692 41.9087L45.9744 39.2577M11.0287 12.7395L7.53075 10.0885M54.2264 34.4645L49.9377 33.0537M7.06842 18.9462L2.77967 17.5327M28.5061 26L17.0998 43.8612" stroke="white" stroke-width="1.5" stroke-linecap="round" stroke-linejoin="round"/>
</svg>
