<svg width="64" height="45" viewBox="0 0 64 45" fill="none" xmlns="http://www.w3.org/2000/svg">
<path d="M21.5 34.8438V37.2354C21.5002 38.1714 21.235 39.0982 20.7197 39.963C20.2044 40.8277 19.449 41.6134 18.4968 42.2751L16.375 43.75H47.125L45.0033 42.2751C44.051 41.6134 43.2956 40.8277 42.7803 39.963C42.265 39.0982 41.9998 38.1714 42 37.2354V34.8438M62.5 6.34375V29.5C62.5 30.9173 61.6901 32.2765 60.2484 33.2786C58.8067 34.2807 56.8514 34.8437 54.8125 34.8438H8.6875C6.64865 34.8437 4.6933 34.2807 3.25162 33.2786C1.80993 32.2765 1 30.9173 1 29.5V6.34375M62.5 6.34375C62.5 4.9265 61.6901 3.5673 60.2484 2.56515C58.8067 1.563 56.8514 1 54.8125 1H8.6875C6.64865 1 4.6933 1.563 3.25162 2.56515C1.80993 3.5673 1 4.9265 1 6.34375M62.5 6.34375V22.375C62.5 23.7923 61.6901 25.1515 60.2484 26.1536C58.8067 27.1557 56.8514 27.7188 54.8125 27.7188H8.6875C6.64865 27.7188 4.6933 27.1557 3.25162 26.1536C1.80993 25.1515 1 23.7923 1 22.375V6.34375" stroke="#CE7B7B" stroke-width="1.5" stroke-linecap="round" stroke-linejoin="round"/>
</svg>
