<svg width="50" height="38" viewBox="0 0 50 38" fill="none" xmlns="http://www.w3.org/2000/svg">
<path d="M5.85925 11.446C3.63733 13.6544 1.98281 16.2264 1 19C4.0685 27.676 13.6113 34 24.9068 34C27.2651 34 29.5451 33.724 31.7064 33.21M11.1983 7.456C15.2657 5.19561 20.0334 3.99364 24.9068 4C36.2023 4 45.7426 10.324 48.8111 18.996C47.1293 23.7346 43.5196 27.8231 38.6153 30.544M11.1983 7.456L3.53175 1M11.1983 7.456L19.867 14.756M38.6153 30.544L46.2818 37M38.6153 30.544L29.9465 23.244M29.9465 23.244C30.6082 22.6868 31.133 22.0253 31.4911 21.2973C31.8492 20.5693 32.0335 19.789 32.0335 19.001C32.0335 18.213 31.8492 17.4327 31.4911 16.7047C31.133 15.9767 30.6082 15.3152 29.9465 14.758C29.2848 14.2008 28.4993 13.7588 27.6348 13.4573C26.7703 13.1557 25.8437 13.0005 24.9079 13.0005C23.9722 13.0005 23.0456 13.1557 22.1811 13.4573C21.3166 13.7588 20.531 14.2008 19.8694 14.758M29.9441 23.242L19.8718 14.76" stroke="white" stroke-width="1.5" stroke-linecap="round" stroke-linejoin="round"/>
</svg>
