<svg width="65" height="49" viewBox="0 0 65 49" fill="none" xmlns="http://www.w3.org/2000/svg">
<path d="M42.1941 43.112C44.9497 43.7586 47.8051 44.0857 50.6746 44.0833C55.2892 44.0887 59.8439 43.2383 63.9881 41.5975C64.1106 39.2572 63.2858 36.9484 61.6387 35.021C59.9916 33.0936 57.612 31.6527 54.8605 30.9168C52.1091 30.1808 49.1357 30.1899 46.3912 30.9426C43.6467 31.6953 41.2806 33.1507 39.6516 35.088M42.1941 43.112V43.1041C42.1941 40.198 41.2733 37.4641 39.6548 35.088M42.1941 43.112V43.3887C35.9766 46.4153 28.8535 48.0099 21.5954 48C14.0648 48 7.01871 46.3158 1.00323 43.3887L1 43.1041C0.997524 39.408 2.51716 35.8163 5.31933 32.8954C8.12151 29.9744 12.0468 27.8903 16.4764 26.9716C20.906 26.053 25.5879 26.352 29.7841 27.8215C33.9802 29.2911 37.4518 31.8476 39.6516 35.088M32.5021 9.81249C32.5021 12.1497 31.3534 14.3912 29.3086 16.0439C27.2638 17.6965 24.4904 18.625 21.5987 18.625C18.7069 18.625 15.9335 17.6965 13.8887 16.0439C11.844 14.3912 10.6952 12.1497 10.6952 9.81249C10.6952 7.47527 11.844 5.23378 13.8887 3.58112C15.9335 1.92846 18.7069 1 21.5987 1C24.4904 1 27.2638 1.92846 29.3086 3.58112C31.3534 5.23378 32.5021 7.47527 32.5021 9.81249V9.81249ZM59.155 15.6875C59.155 17.5053 58.2615 19.2487 56.6712 20.5341C55.0808 21.8195 52.9237 22.5416 50.6746 22.5416C48.4254 22.5416 46.2684 21.8195 44.678 20.5341C43.0876 19.2487 42.1941 17.5053 42.1941 15.6875C42.1941 13.8696 43.0876 12.1263 44.678 10.8409C46.2684 9.55546 48.4254 8.83333 50.6746 8.83333C52.9237 8.83333 55.0808 9.55546 56.6712 10.8409C58.2615 12.1263 59.155 13.8696 59.155 15.6875V15.6875Z" stroke="white" stroke-width="1.5" stroke-linecap="round" stroke-linejoin="round"/>
</svg>
