<svg width="52" height="54" viewBox="0 0 52 54" fill="none" xmlns="http://www.w3.org/2000/svg">
<path id="Vector" d="M50.375 33V26C50.375 23.6131 49.2194 21.3239 47.1623 19.636C45.1053 17.9482 42.3153 17 39.4062 17H34.5312C33.5616 17 32.6316 16.6839 31.9459 16.1213C31.2602 15.5587 30.875 14.7956 30.875 14V10C30.875 7.61305 29.7194 5.32387 27.6623 3.63604C25.6053 1.94821 22.8153 1 19.9062 1H13.8125M16.25 39V41M26 33V41M35.75 27V41M21.125 1H5.28125C3.263 1 1.625 2.344 1.625 4V50C1.625 51.656 3.263 53 5.28125 53H46.7188C48.737 53 50.375 51.656 50.375 50V25C50.375 18.6348 47.2933 12.5303 41.8079 8.02944C36.3224 3.52856 28.8826 1 21.125 1V1Z" stroke="white" stroke-width="1.5" stroke-linecap="round" stroke-linejoin="round"/>
</svg>
